<?xml version="1.0" encoding="utf-8"?>
<!-- Generator: Adobe Illustrator 22.0.1, SVG Export Plug-In . SVG Version: 6.00 Build 0)  -->
<svg version="1.1" xmlns="http://www.w3.org/2000/svg" xmlns:xlink="http://www.w3.org/1999/xlink" x="0px" y="0px"
	 viewBox="0 0 100 100" style="enable-background:new 0 0 100 100;" xml:space="preserve">
<style type="text/css">
	.st0{fill:#0399FF;}
	.st1{fill:#F7F7F7;}
	.st2{fill:#FFFFFF;}
</style>
<g id="twitter">
	<circle class="st0" cx="50" cy="50" r="48"/>
	<path class="st1" d="M74.5,34.7c-1.8,0.8-3.7,1.3-5.8,1.6c2.1-1.3,3.7-3.2,4.4-5.6c-1.9,1.2-4.1,2-6.4,2.5c-1.8-2-4.4-3.2-7.3-3.2
		c-5.6,0-10.1,4.5-10.1,10.1c0,0.8,0.1,1.6,0.3,2.3c-8.4-0.4-15.8-4.4-20.7-10.6c-0.9,1.5-1.4,3.2-1.4,5.1c0,3.5,1.8,6.6,4.5,8.4
		c-1.6-0.1-3.2-0.5-4.6-1.3c0,0,0,0.1,0,0.1c0,4.9,3.5,9,8.1,9.9c-0.8,0.2-1.7,0.4-2.6,0.4c-0.6,0-1.3-0.1-1.9-0.2
		c1.3,4,5,6.9,9.4,7c-3.4,2.7-7.8,4.3-12.5,4.3c-0.8,0-1.6,0-2.4-0.1c4.4,2.9,9.7,4.5,15.4,4.5c18.5,0,28.6-15.4,28.6-28.8
		c0-0.4,0-0.9,0-1.3C71.4,38.5,73.2,36.7,74.5,34.7z"/>
</g>
<g id="Layer_2">
	<path class="st0" d="M98.7,50.3c0,26.7-21.8,48.5-48.5,48.4C23.4,98.7,1.8,77,1.8,50.3c0-26.8,21.7-48.5,48.5-48.5
		C77,1.8,98.7,23.6,98.7,50.3z M77.7,50.7c-0.1-1.7-0.2-3-0.4-4.4c-1.8-14.6-16.6-25.5-31.1-23c-0.6,0.1-1.3,0-1.8-0.3
		c-6-3.3-13.4-2.4-18.2,2.3c-5,4.8-6.2,12-3.1,18.3c0.2,0.4,0.3,1,0.2,1.5c-0.8,4.6-0.6,9.1,0.8,13.5c4.1,12.7,16.5,20.5,29.7,18.8
		c0.6-0.1,1.4,0,2,0.3c5.9,3,13,2.1,17.8-2.5c4.7-4.5,6.1-11.5,3.5-17.5C77,57.2,77,56.6,77.1,56C77.2,54.1,77.5,52.3,77.7,50.7z"/>
	<path class="st2" d="M77.7,50.7c-0.2,1.6-0.5,3.5-0.6,5.3c-0.1,0.6,0,1.2,0.2,1.8c2.6,6,1.2,13.1-3.5,17.5
		c-4.8,4.5-11.9,5.5-17.8,2.5c-0.6-0.3-1.4-0.4-2-0.3c-13.3,1.7-25.7-6.1-29.7-18.8c-1.4-4.4-1.6-8.9-0.8-13.5
		c0.1-0.5,0-1.1-0.2-1.5c-3.1-6.3-1.9-13.5,3.1-18.3c4.9-4.7,12.2-5.6,18.2-2.3c0.5,0.3,1.2,0.4,1.8,0.3c14.5-2.5,29.3,8.4,31.1,23
		C77.5,47.6,77.6,49,77.7,50.7z M50.1,32.3c0-0.1,0-0.2-0.1-0.3c-2.3,0.5-4.7,0.8-6.9,1.6c-3.7,1.4-5.9,4.1-6.1,8.2
		c-0.2,4.3,2,7.1,5.8,8.7c2.2,0.9,4.6,1.4,6.9,2.2c1.9,0.6,3.8,1.1,5.5,2c2.4,1.4,2.6,4.5,0.7,6.5c-3.4,3.5-10.3,2.6-12.5-1.7
		c-0.5-1-0.9-2.1-1.5-3c-0.8-1.2-2-1.6-3.4-1.2c-1.2,0.4-2.1,1.5-2.2,2.8c0,0.5,0,0.9,0.1,1.4c0.9,3.8,3.2,6.3,6.7,7.8
		c3.2,1.4,6.6,1.5,10.1,1.1c2.4-0.3,4.6-1.1,6.7-2.4c5.5-3.6,6.5-13.9-1.5-17.2c-0.8-0.3-1.6-0.7-2.4-0.9c-2.3-0.7-4.6-1.2-6.9-1.9
		c-1.4-0.4-2.9-0.9-4.1-1.7c-1.9-1.2-1.9-3.6-0.2-5.1c3-2.7,8.7-1.9,10.9,1.5c0.4,0.7,0.8,1.4,1.2,2c1,1.6,2.3,2.1,3.7,1.5
		c1.4-0.5,2.3-2.1,2-3.7c-0.4-2.9-2.2-4.8-4.6-6.2C55.5,32.7,52.9,32.2,50.1,32.3z"/>
	<path class="st0" d="M50.1,32.3c2.8-0.1,5.4,0.4,7.8,1.7c2.4,1.4,4.2,3.3,4.6,6.2c0.2,1.6-0.6,3.2-2,3.7c-1.5,0.6-2.7,0.1-3.7-1.5
		c-0.4-0.7-0.8-1.4-1.2-2c-2.1-3.4-7.9-4.2-10.9-1.5c-1.7,1.5-1.7,3.9,0.2,5.1c1.2,0.8,2.7,1.3,4.1,1.7c2.3,0.7,4.6,1.3,6.9,1.9
		c0.8,0.2,1.6,0.6,2.4,0.9c8,3.3,6.9,13.6,1.5,17.2c-2,1.4-4.3,2.2-6.7,2.4c-3.4,0.4-6.8,0.3-10.1-1.1c-3.5-1.5-5.8-4.1-6.7-7.8
		c-0.1-0.5-0.1-0.9-0.1-1.4c0.1-1.3,0.9-2.4,2.2-2.8c1.4-0.4,2.6-0.1,3.4,1.2c0.6,1,1,2,1.5,3c2.2,4.3,9.2,5.3,12.5,1.7
		c1.9-2,1.7-5.1-0.7-6.5c-1.7-1-3.6-1.4-5.5-2c-2.3-0.8-4.7-1.3-6.9-2.2c-3.8-1.6-6-4.4-5.8-8.7c0.2-4.1,2.4-6.9,6.1-8.2
		c2.2-0.8,4.6-1.1,6.9-1.6C50.1,32.1,50.1,32.2,50.1,32.3z"/>
</g>
</svg>
